<svg width="43" height="32" viewBox="0 0 43 32" fill="none" xmlns="http://www.w3.org/2000/svg">
<path d="M28.0898 28.5352C28.0898 26.875 26.7617 25.4805 25.0352 25.4805C23.375 25.4805 21.9805 26.875 21.9805 28.5352C21.9805 30.1953 23.375 31.5898 25.0352 31.5898C26.7617 31.5898 28.0898 30.1953 28.0898 28.5352ZM11.2227 25.4805C9.5625 25.4805 8.16797 26.875 8.16797 28.5352C8.16797 30.1953 9.5625 31.5898 11.2227 31.5898C12.8828 31.5898 14.2773 30.1953 14.2773 28.5352C14.2773 26.875 12.8828 25.4805 11.2227 25.4805ZM30.6133 7.55078C10.4922 7.55078 5.37891 6.75391 0 0.976562C2.25781 4.42969 3.51953 10.8711 24.7695 10.5391C46.8828 10.207 33.4023 16.25 29.418 23.0898C41.8359 12.0664 50.668 7.55078 30.6133 7.55078Z" fill="black"/>
</svg>
