<svg width="26" height="26" viewBox="0 0 26 26" fill="none" xmlns="http://www.w3.org/2000/svg">
<path d="M24.7812 10.1562H24.3129L23.557 5.6207C23.5412 5.52585 23.4922 5.43968 23.4188 5.37752C23.3455 5.31536 23.2524 5.28125 23.1562 5.28125H22.3438V4.875C22.3438 4.55177 22.2153 4.24177 21.9868 4.01321C21.7582 3.78465 21.4482 3.65625 21.125 3.65625C20.8018 3.65625 20.4918 3.78465 20.2632 4.01321C20.0347 4.24177 19.9062 4.55177 19.9062 4.875V5.28125H19.0938C18.9976 5.28125 18.9045 5.31536 18.8312 5.37752C18.7578 5.43968 18.7088 5.52585 18.693 5.6207L17.9371 10.1562H17.0625C16.9548 10.1563 16.8514 10.1991 16.7752 10.2752C16.6991 10.3514 16.6563 10.4548 16.6562 10.5625V11.375C16.6562 11.4629 16.6848 11.5484 16.7375 11.6187L17.4688 12.5938H15.5159L15.0054 11.2324C14.9764 11.1549 14.9244 11.0882 14.8564 11.0411C14.7884 10.994 14.7077 10.9687 14.625 10.9688H11.375C11.2923 10.9687 11.2116 10.994 11.1436 11.0411C11.0756 11.0882 11.0236 11.1549 10.9946 11.2324L10.4841 12.5938H8.53124L9.2625 11.6187C9.31524 11.5484 9.34375 11.4629 9.34375 11.375V10.5625C9.34375 10.4548 9.30095 10.3514 9.22476 10.2752C9.14857 10.1991 9.04524 10.1563 8.9375 10.1562H8.06289L7.30697 5.6207C7.29116 5.52585 7.24221 5.43968 7.16883 5.37752C7.09546 5.31536 7.00241 5.28125 6.90625 5.28125H6.09375V4.875C6.09375 4.55177 5.96535 4.24177 5.73679 4.01321C5.50823 3.78465 5.19823 3.65625 4.875 3.65625C4.55177 3.65625 4.24177 3.78465 4.01321 4.01321C3.78465 4.24177 3.65625 4.55177 3.65625 4.875V5.28125H2.84375C2.74759 5.28125 2.65454 5.31536 2.58116 5.37752C2.50779 5.43968 2.45884 5.52585 2.44303 5.6207L1.68711 10.1562H1.21875C1.11101 10.1563 1.00768 10.1991 0.931489 10.2752C0.855303 10.3514 0.812501 10.4548 0.8125 10.5625V11.375C0.812498 11.4629 0.84101 11.5484 0.893755 11.6187L2.11251 13.2437C2.15034 13.2942 2.19941 13.3352 2.25582 13.3634C2.31223 13.3916 2.37443 13.4063 2.4375 13.4062H3.25V14.2188C3.25 14.3083 3.27956 14.3953 3.33409 14.4662C3.38863 14.5372 3.46508 14.5882 3.55156 14.6113L9.16608 16.1085L8.65597 17.4688H3.25C3.14226 17.4688 3.03893 17.5116 2.96274 17.5877C2.88655 17.6639 2.84375 17.7673 2.84375 17.875V21.9375C2.84375 22.0452 2.88655 22.1486 2.96274 22.2248C3.03893 22.3009 3.14226 22.3437 3.25 22.3438H4.46875C4.53563 22.3438 4.60148 22.3272 4.66044 22.2957C4.71941 22.2641 4.76967 22.2185 4.80676 22.1628L5.49866 21.125H20.5013L21.1932 22.1628C21.2303 22.2185 21.2806 22.2641 21.3396 22.2957C21.3985 22.3272 21.4644 22.3438 21.5312 22.3438H22.75C22.8577 22.3437 22.9611 22.3009 23.0373 22.2248C23.1134 22.1486 23.1562 22.0452 23.1562 21.9375V17.875C23.1562 17.7673 23.1134 17.6639 23.0373 17.5877C22.9611 17.5116 22.8577 17.4688 22.75 17.4688H17.344L16.8339 16.1085L22.4484 14.6113C22.5349 14.5882 22.6114 14.5372 22.6659 14.4662C22.7204 14.3953 22.75 14.3083 22.75 14.2188V13.4062H23.5625C23.6256 13.4063 23.6878 13.3916 23.7442 13.3634C23.8006 13.3352 23.8497 13.2942 23.8875 13.2437L25.1062 11.6187C25.159 11.5484 25.1875 11.4629 25.1875 11.375V10.5625C25.1875 10.4548 25.1447 10.3514 25.0685 10.2752C24.9923 10.1991 24.889 10.1563 24.7812 10.1562ZM20.7188 4.875C20.7188 4.76726 20.7616 4.66392 20.8377 4.58774C20.9139 4.51155 21.0173 4.46875 21.125 4.46875C21.2327 4.46875 21.3361 4.51155 21.4123 4.58774C21.4884 4.66392 21.5312 4.76726 21.5312 4.875V5.28125H20.7188V4.875ZM19.4379 6.09375H19.9062V6.90625H20.7188V6.09375H21.5312V6.90625H22.3438V6.09375H22.8121L23.4892 10.1562H18.7608L19.4379 6.09375ZM4.46875 4.875C4.46875 4.76726 4.51155 4.66392 4.58774 4.58774C4.66392 4.51155 4.76726 4.46875 4.875 4.46875C4.98274 4.46875 5.08608 4.51155 5.16226 4.58774C5.23845 4.66392 5.28125 4.76726 5.28125 4.875V5.28125H4.46875V4.875ZM3.18789 6.09375H3.65625V6.90625H4.46875V6.09375H5.28125V6.90625H6.09375V6.09375H6.56211L7.23919 10.1562H2.51081L3.18789 6.09375ZM1.625 11.2396V10.9688H8.53125V11.2396L7.51562 12.5938H2.64062L1.625 11.2396ZM4.0625 13.9066V13.4062H10.1794L9.45274 15.344L4.0625 13.9066ZM22.3438 21.5312H21.7487L21.0568 20.4934C21.0197 20.4378 20.9694 20.3921 20.9104 20.3606C20.8515 20.329 20.7856 20.3125 20.7188 20.3125H5.28125C5.21437 20.3125 5.14852 20.329 5.08956 20.3606C5.03059 20.3921 4.98033 20.4378 4.94324 20.4934L4.25134 21.5312H3.65625V18.2812H22.3438V21.5312ZM9.52372 17.4688L11.6565 11.7812H14.3435L16.4763 17.4688H9.52372ZM21.9375 13.9066L16.5473 15.344L15.8206 13.4062H21.9375V13.9066ZM24.375 11.2396L23.3594 12.5938H18.4844L17.4688 11.2396V10.9688H24.375V11.2396Z" fill="black"/>
</svg>
